<?xml version="1.0" standalone="no"?>
<!DOCTYPE svg PUBLIC "-//W3C//DTD SVG 20010904//EN"
 "http://www.w3.org/TR/2001/REC-SVG-20010904/DTD/svg10.dtd">
<svg version="1.0" xmlns="http://www.w3.org/2000/svg"
 width="1024.000000pt" height="1024.000000pt" viewBox="0 0 1024.000000 1024.000000"
 preserveAspectRatio="xMidYMid meet">

<g transform="translate(0.000000,1024.000000) scale(0.100000,-0.100000)"
fill="#000000" stroke="none">
<path d="M1653 6129 c-385 -50 -707 -349 -790 -734 -9 -42 -15 -122 -15 -200
-1 -165 23 -271 92 -410 62 -126 133 -220 225 -299 94 -79 165 -121 275 -162
548 -206 1145 109 1276 672 26 111 24 299 -5 417 -112 466 -575 779 -1058 716z
m313 -263 c226 -55 414 -226 489 -443 116 -334 -36 -703 -352 -854 -61 -29
-220 -75 -229 -66 -2 2 15 17 38 32 47 31 129 97 125 101 -1 2 -33 -6 -71 -16
-102 -29 -197 -34 -295 -16 -351 63 -569 398 -481 740 29 113 73 190 161 278
160 162 370 215 602 150 37 -11 67 -16 65 -12 -4 8 -94 88 -128 113 -28 20
-32 20 76 -7z"/>
<path d="M6610 5749 c-55 -25 -95 -62 -123 -114 -19 -34 -22 -56 -22 -145 0
-95 3 -110 27 -155 30 -57 76 -106 200 -217 93 -84 128 -139 128 -202 0 -67
-32 -105 -91 -106 -52 0 -81 35 -87 105 l-4 55 -96 0 -95 0 7 -72 c8 -88 45
-170 96 -210 47 -37 147 -62 213 -53 71 9 149 48 182 90 45 59 58 114 53 224
-3 90 -6 102 -38 156 -20 33 -69 88 -115 129 -152 136 -194 191 -195 254 0 41
28 92 56 103 60 22 114 -32 114 -116 l0 -35 91 0 92 0 -5 78 c-7 121 -62 205
-156 237 -66 22 -176 19 -232 -6z"/>
<path d="M7646 5755 c-63 -24 -102 -61 -133 -122 l-28 -58 0 -375 c0 -373 0
-375 23 -422 48 -96 137 -144 262 -142 84 2 159 34 204 86 54 63 66 125 66
346 l0 192 -140 0 -140 0 0 -85 0 -85 50 0 50 0 0 -109 c0 -103 -1 -111 -26
-140 -33 -40 -89 -43 -131 -7 l-28 24 0 340 0 340 24 26 c33 35 89 36 128 2
24 -21 28 -32 31 -95 l4 -71 90 0 91 0 -5 83 c-7 129 -53 213 -143 260 -52 27
-192 34 -249 12z"/>
<path d="M3010 5201 l0 -551 95 0 95 0 0 230 0 230 51 0 c105 0 119 -29 119
-243 0 -85 3 -169 6 -186 l7 -31 86 0 87 0 -3 205 c-3 254 -14 290 -107 337
l-30 15 25 8 c66 20 110 98 117 208 9 144 -38 250 -131 300 -38 20 -58 22
-229 25 l-188 4 0 -551z m333 348 c25 -27 27 -36 27 -110 0 -86 -17 -141 -48
-155 -9 -4 -41 -10 -69 -14 l-53 -6 0 156 c0 86 3 160 7 163 4 4 29 5 57 1 39
-4 58 -13 79 -35z"/>
<path d="M3822 5513 c-79 -443 -152 -855 -152 -859 0 -2 42 -4 93 -4 l94 0 12
83 c6 45 14 96 17 112 l5 30 92 -4 c51 -1 94 -5 96 -7 3 -3 12 -51 20 -107
l16 -102 98 -3 c97 -3 98 -3 93 20 -7 31 -160 858 -182 981 l-17 97 -121 0
-121 0 -43 -237z m206 -288 l28 -180 -69 -3 c-38 -2 -71 -1 -73 1 -4 4 51 368
63 417 6 23 7 21 15 -15 4 -22 21 -121 36 -220z"/>
<path d="M4330 5731 c0 -37 48 -427 111 -913 l22 -168 112 0 112 0 16 103 c9
56 30 206 48 332 30 226 47 306 48 239 2 -54 92 -659 100 -667 4 -4 54 -6 111
-5 l104 3 28 225 c15 124 46 360 68 525 22 165 40 310 40 323 0 21 -3 22 -90
22 -65 0 -90 -3 -90 -12 0 -7 -11 -128 -25 -268 -14 -140 -30 -312 -37 -382
-6 -71 -13 -127 -14 -125 -2 2 -19 120 -39 262 -19 143 -43 319 -53 390 l-18
130 -90 3 -89 3 -18 -118 c-28 -194 -64 -451 -78 -561 -14 -112 -23 -114 -32
-7 -13 151 -57 612 -63 648 l-6 37 -89 0 c-81 0 -89 -2 -89 -19z"/>
<path d="M5380 5200 l0 -550 95 0 95 0 0 550 0 550 -95 0 -95 0 0 -550z"/>
<path d="M5746 5202 l1 -547 82 -3 81 -3 1 373 0 373 49 -180 c27 -99 73 -265
103 -370 l54 -190 101 0 c56 0 102 3 102 8 0 4 0 250 0 547 l0 540 -85 0 -85
0 -1 -337 c-1 -246 -4 -326 -11 -293 -5 25 -37 142 -70 260 -33 118 -70 250
-82 293 l-21 77 -110 0 -110 0 1 -548z"/>
<path d="M7140 5200 l0 -550 90 0 90 0 0 550 0 550 -90 0 -90 0 0 -550z"/>
<path d="M8192 5203 l3 -548 93 -3 92 -3 0 251 0 250 90 0 90 0 0 -250 0 -250
95 0 95 0 0 550 0 550 -95 0 -95 0 0 -220 0 -220 -90 0 -90 0 0 220 0 220 -95
0 -95 0 2 -547z"/>
<path d="M8870 5665 l0 -85 90 0 90 0 0 -465 0 -465 95 0 95 0 0 465 0 465 90
0 90 0 0 85 0 85 -275 0 -275 0 0 -85z"/>
</g>
</svg>
